<svg width="342" height="96" viewBox="0 0 342 96" fill="none" xmlns="http://www.w3.org/2000/svg">
<path d="M43.7711 74.1298C44.0442 74.4517 44.5607 74.1623 44.4363 73.7594C43.8522 71.8637 43.4574 70.1168 43.4845 68.2698C43.5196 65.8847 44.3255 63.8754 45.9507 62.1934C47.2001 60.9035 50.8967 57.3582 51.3646 56.7606C52.7978 54.9326 52.8303 53.0153 51.3402 51.2251C50.4532 50.1623 49.4094 49.2239 48.3818 48.2856C46.6808 46.7279 45.0935 45.0946 44.1091 42.9691C43.26 41.1383 43.287 39.3102 44.1713 37.5092C44.4742 36.8927 44.7392 36.2247 44.9447 35.6622C45.2341 34.8618 45.9967 34.3345 46.8458 34.3345C48.1709 34.3345 49.1417 35.5892 48.8064 36.871C48.7766 36.9819 48.7577 37.0684 48.7496 37.1225C48.5251 38.5612 48.2006 41.2059 49.8475 42.8447C51.278 44.2671 52.8438 45.5597 54.2419 47.0146C58.3496 51.2927 58.2603 56.5767 54.0985 60.7737C52.2975 62.5882 50.2396 64.1323 48.6387 66.1632C47.0675 68.1535 46.3158 70.4034 46.2536 72.8913C46.1968 75.1358 46.2103 77.383 46.2238 79.6302C46.2292 80.5821 46.0994 81.0337 45.0556 80.3387C40.4909 77.2992 35.269 76.1742 29.9823 75.2602C28.4354 74.9925 26.8751 74.7978 25.3283 74.5409C23.5651 74.2488 22.5592 73.1455 22.1995 71.4446C22.0616 70.7901 21.9777 51.1061 21.9832 41.9415C21.9832 38.9939 23.0919 37.7851 25.9908 38.0636C30.1905 38.4692 34.3388 39.2751 38.3194 40.7516C39.4362 41.1653 40.2313 41.9036 40.4774 43.1313C40.8992 45.2244 42.3 47.4554 43.4168 48.5046C44.4336 49.4619 46.5267 50.6058 47.9059 51.8227C49.9665 53.6426 49.9935 54.8055 47.8923 56.6443C46.643 57.7368 44.7852 59.3107 43.6359 60.5033C40.4395 63.8186 39.969 67.7371 42.2026 71.7501C42.6488 72.5506 43.1059 73.3483 43.7711 74.1298Z" fill="#00D3BB"/>
<path d="M74.0043 70.1682C73.9935 73.1104 72.7415 74.3516 69.8371 74.7194C64.2177 75.4306 58.6335 76.3338 53.4468 78.8C52.5571 79.2219 51.7215 79.76 50.8643 80.2495C50.4019 80.5145 49.9611 80.6443 49.9773 79.8871C50.0368 76.8855 49.6717 73.8702 50.2207 70.8848C50.5154 69.2812 51.3619 67.994 52.5057 66.8528C54.158 65.2059 55.978 63.7159 57.4085 61.8581C61.3945 56.6768 61.0863 50.1921 56.6297 45.3948C55.8671 44.5727 55.0802 43.7614 54.2365 43.0259C53.5983 42.4688 53.7281 42.2903 54.442 41.982C58.5605 40.2135 62.9008 39.2994 67.2952 38.5963C68.4445 38.4124 69.6127 38.2962 70.7755 38.2799C73.0146 38.2529 73.9962 39.2291 74.007 41.4655C74.0287 46.3169 74.0206 65.452 74.0043 70.1682Z" fill="#00D3BB"/>
<path d="M43.6064 34.6104C38.3494 34.4211 33.5629 31.3031 31.962 26.9655C31.2265 24.9725 31.359 22.8335 31.1264 20.7593C30.929 18.9908 30.7938 17.2276 30.2638 15.5185C30.0583 14.856 30.2422 14.5423 31.0318 14.5667C35.1179 14.6938 38.4603 17.8658 38.582 21.8924C38.6875 25.3132 40.1964 28.0553 42.4274 30.5108C43.2062 31.368 44.0418 32.2009 44.5151 33.288C45.0235 34.4589 44.8855 34.6563 43.6064 34.6104Z" fill="#0069A8"/>
<path d="M54.4666 21.9411C54.4666 17.9118 57.9334 14.7424 62.0168 14.6153C62.8064 14.591 62.9903 14.902 62.7848 15.5672C62.2548 17.2763 62.1196 19.0394 61.9222 20.808C61.6896 22.8794 61.8248 25.0185 61.0865 27.0142C59.4829 31.3518 54.6965 34.4698 49.4422 34.659C48.8959 34.6726 48.9933 34.1885 48.9094 33.8802C48.3307 31.752 47.1165 30.1295 45.4751 28.6205C42.5734 25.9487 39.8503 23.0741 40.6886 18.5202C41.37 14.8236 43.4496 11.9949 46.0916 9.53409C46.7893 8.88508 47.606 9.90998 47.9332 10.3318C49.8856 12.8468 51.8895 15.3779 52.0788 18.7825C52.1383 19.8778 51.8408 21.0216 51.1512 22.0736C50.9971 22.3089 50.6455 22.2791 50.5157 22.0303C49.5341 20.1292 48.3794 18.3715 47.0165 16.7327C46.7947 16.4677 46.3702 16.4975 46.1944 16.7949C44.6719 19.3612 45.1695 21.8032 47.6033 23.8205C49.2447 25.1807 50.2372 26.9412 51.4352 28.8639C52.1085 29.9456 54.4639 25.9271 54.4639 21.9465L54.4666 21.9411Z" fill="#0069A8"/>
<path d="M120.736 64.48C119.2 64.48 117.744 64.272 116.368 63.856C115.024 63.44 113.792 62.832 112.672 62.032C111.584 61.2 110.656 60.192 109.888 59.008C109.152 57.792 108.624 56.4 108.304 54.832C108.464 54.992 108.656 55.136 108.88 55.264C109.104 55.36 109.312 55.472 109.504 55.6C109.728 55.696 109.84 55.84 109.84 56.032L107.872 64H105.664L107.584 53.344H109.984C110.24 54.72 110.672 55.968 111.28 57.088C111.888 58.208 112.656 59.152 113.584 59.92C114.544 60.688 115.632 61.28 116.848 61.696C118.064 62.112 119.376 62.32 120.784 62.32C122.32 62.32 123.664 62.048 124.816 61.504C125.968 60.96 126.848 60.176 127.456 59.152C128.096 58.128 128.416 56.88 128.416 55.408C128.416 54.32 128.176 53.392 127.696 52.624C127.248 51.856 126.624 51.184 125.824 50.608C125.024 50 124.112 49.456 123.088 48.976C122.096 48.496 121.072 48.032 120.016 47.584C118.544 46.912 117.136 46.192 115.792 45.424C114.48 44.624 113.392 43.648 112.528 42.496C111.696 41.312 111.28 39.84 111.28 38.08C111.28 36.384 111.696 34.88 112.528 33.568C113.36 32.256 114.544 31.248 116.08 30.544C117.648 29.808 119.456 29.44 121.504 29.44C123.328 29.44 124.928 29.776 126.304 30.448C127.712 31.12 128.848 32.048 129.712 33.232C130.576 34.416 131.12 35.792 131.344 37.36C131.248 37.36 131.088 37.328 130.864 37.264C130.672 37.168 130.48 37.04 130.288 36.88C130.128 36.688 129.968 36.528 129.808 36.4L131.536 30.016H133.6L132.064 38.848H129.808C129.648 37.472 129.2 36.24 128.464 35.152C127.76 34.064 126.816 33.2 125.632 32.56C124.48 31.92 123.088 31.6 121.456 31.6C119.92 31.6 118.64 31.872 117.616 32.416C116.592 32.928 115.824 33.632 115.312 34.528C114.8 35.424 114.544 36.448 114.544 37.6C114.544 38.624 114.752 39.504 115.168 40.24C115.616 40.944 116.208 41.568 116.944 42.112C117.712 42.624 118.56 43.12 119.488 43.6C120.448 44.048 121.472 44.496 122.56 44.944C123.68 45.456 124.784 46.016 125.872 46.624C126.992 47.2 128 47.872 128.896 48.64C129.824 49.376 130.544 50.256 131.056 51.28C131.6 52.272 131.872 53.456 131.872 54.832C131.872 56.4 131.568 57.792 130.96 59.008C130.384 60.192 129.584 61.2 128.56 62.032C127.536 62.832 126.352 63.44 125.008 63.856C123.664 64.272 122.24 64.48 120.736 64.48ZM142.891 55.072C142.763 55.872 142.651 56.592 142.555 57.232C142.459 57.84 142.411 58.4 142.411 58.912C142.411 59.552 142.507 60.128 142.699 60.64C142.923 61.12 143.259 61.488 143.707 61.744C144.155 62 144.747 62.128 145.483 62.128C146.603 62.128 147.675 61.776 148.699 61.072C149.755 60.368 150.795 59.344 151.819 58C152.875 56.656 153.931 55.008 154.987 53.056L155.803 54.208C154.715 56.32 153.595 58.144 152.443 59.68C151.291 61.184 150.059 62.352 148.747 63.184C147.467 64.016 146.059 64.432 144.523 64.432C142.763 64.432 141.387 63.952 140.395 62.992C139.403 62.032 138.907 60.704 138.907 59.008C138.907 58.496 138.939 57.904 139.003 57.232C139.099 56.56 139.211 55.84 139.339 55.072L141.547 43.456C141.643 42.976 141.579 42.608 141.355 42.352C141.131 42.096 140.763 41.888 140.251 41.728C139.771 41.568 139.147 41.424 138.379 41.296L137.707 41.2L137.995 39.52H145.771L142.891 55.072ZM157.099 57.136C157.003 57.648 156.923 58.128 156.859 58.576C156.795 58.992 156.731 59.376 156.667 59.728C156.635 60.08 156.619 60.384 156.619 60.64C156.619 61.152 156.747 61.536 157.003 61.792C157.291 62.016 157.707 62.128 158.251 62.128C158.987 62.128 159.675 62 160.315 61.744C160.987 61.456 161.451 61.264 161.707 61.168L161.323 63.04C161.067 63.264 160.731 63.488 160.315 63.712C159.899 63.904 159.435 64.048 158.923 64.144C158.443 64.272 157.915 64.336 157.339 64.336C156.219 64.336 155.291 64.032 154.555 63.424C153.819 62.784 153.451 61.84 153.451 60.592C153.451 60.24 153.467 59.856 153.499 59.44C153.563 58.992 153.627 58.528 153.691 58.048C153.787 57.568 153.883 57.104 153.979 56.656L153.739 56.512L156.715 39.52H160.171L157.099 57.136ZM160.355 74.704L160.643 72.976H160.691C161.875 72.976 162.851 72.864 163.62 72.64C164.42 72.448 164.884 72.016 165.012 71.344L169.908 43.408C170.004 42.96 169.94 42.608 169.716 42.352C169.492 42.096 169.124 41.888 168.612 41.728C168.132 41.568 167.508 41.424 166.74 41.296L166.116 41.2L166.404 39.52H173.748L172.5 46.768L172.836 46.48L168.276 72.496C168.276 72.592 168.404 72.656 168.66 72.688C168.916 72.752 169.236 72.8 169.62 72.832C170.004 72.896 170.388 72.928 170.772 72.928C171.188 72.96 171.54 72.976 171.828 72.976H173.076L172.788 74.704H160.355ZM167.556 59.104L169.236 56.896C169.556 58.08 170.052 59.088 170.724 59.92C171.396 60.752 172.196 61.392 173.124 61.84C174.084 62.256 175.14 62.464 176.292 62.464C177.476 62.464 178.58 62.208 179.604 61.696C180.628 61.184 181.54 60.48 182.34 59.584C183.172 58.688 183.86 57.648 184.404 56.464C184.98 55.28 185.412 54 185.7 52.624C186.02 51.248 186.18 49.84 186.18 48.4C186.18 46.896 186.004 45.616 185.652 44.56C185.332 43.472 184.82 42.64 184.116 42.064C183.444 41.456 182.564 41.152 181.476 41.152C180.228 41.152 179.044 41.536 177.924 42.304C176.836 43.04 175.764 44.112 174.708 45.52C173.652 46.896 172.564 48.576 171.444 50.56L170.58 49.216C171.732 47.04 172.868 45.2 173.988 43.696C175.14 42.192 176.356 41.04 177.636 40.24C178.948 39.44 180.42 39.04 182.052 39.04C183.716 39.04 185.124 39.424 186.276 40.192C187.428 40.96 188.308 42.064 188.916 43.504C189.556 44.944 189.876 46.656 189.876 48.64C189.876 50.304 189.668 51.92 189.252 53.488C188.836 55.024 188.228 56.464 187.427 57.808C186.628 59.152 185.668 60.336 184.548 61.36C183.428 62.352 182.164 63.136 180.756 63.712C179.348 64.256 177.828 64.528 176.196 64.528C174.852 64.528 173.62 64.304 172.5 63.856C171.38 63.408 170.404 62.784 169.572 61.984C168.74 61.152 168.068 60.192 167.556 59.104ZM203.732 64.576C201.876 64.576 200.196 64.16 198.692 63.328C197.188 62.496 196.004 61.28 195.14 59.68C194.276 58.048 193.844 56.064 193.844 53.728C193.844 51.904 194.148 50.112 194.756 48.352C195.364 46.592 196.228 45.008 197.348 43.6C198.468 42.192 199.828 41.088 201.428 40.288C203.028 39.456 204.804 39.04 206.756 39.04C208.292 39.04 209.604 39.296 210.692 39.808C211.78 40.32 212.596 41.008 213.14 41.872C213.716 42.736 214.004 43.728 214.004 44.848C214.004 46.288 213.604 47.552 212.804 48.64C212.036 49.728 210.9 50.656 209.396 51.424C207.892 52.16 206.02 52.752 203.78 53.2C201.572 53.616 199.028 53.904 196.148 54.064L196.532 52.24C199.092 52.048 201.268 51.776 203.06 51.424C204.884 51.04 206.34 50.56 207.428 49.984C208.548 49.376 209.364 48.656 209.876 47.824C210.388 46.96 210.644 45.952 210.644 44.8C210.644 44.064 210.484 43.424 210.164 42.88C209.876 42.304 209.428 41.872 208.82 41.584C208.244 41.264 207.508 41.104 206.612 41.104C205.332 41.104 204.132 41.44 203.012 42.112C201.892 42.752 200.916 43.664 200.084 44.848C199.252 46.032 198.596 47.408 198.116 48.976C197.668 50.544 197.444 52.256 197.444 54.112C197.444 55.904 197.7 57.424 198.212 58.672C198.756 59.92 199.508 60.864 200.468 61.504C201.428 62.144 202.58 62.464 203.924 62.464C205.172 62.464 206.26 62.24 207.188 61.792C208.116 61.312 208.932 60.688 209.636 59.92C210.34 59.12 210.932 58.224 211.412 57.232L213.14 58.528C212.5 59.776 211.716 60.864 210.788 61.792C209.86 62.688 208.804 63.376 207.62 63.856C206.436 64.336 205.14 64.576 203.732 64.576ZM218.337 64L222.033 43.408C222.097 42.96 222.017 42.608 221.793 42.352C221.601 42.096 221.249 41.888 220.737 41.728C220.225 41.568 219.585 41.424 218.817 41.296L218.193 41.2L218.48 39.52H225.873L224.577 46.96L224.865 46.816L221.841 64H218.337ZM233.985 39.328L233.409 42.784C233.153 42.72 232.833 42.64 232.449 42.544C232.097 42.448 231.665 42.4 231.153 42.4C230.449 42.4 229.777 42.56 229.137 42.88C228.529 43.2 227.937 43.696 227.361 44.368C226.785 45.04 226.193 45.92 225.585 47.008C224.977 48.096 224.337 49.376 223.665 50.848L222.897 49.744C223.569 48.208 224.241 46.8 224.913 45.52C225.617 44.208 226.337 43.072 227.073 42.112C227.841 41.152 228.641 40.4 229.473 39.856C230.305 39.312 231.217 39.04 232.209 39.04C232.657 39.04 233.025 39.072 233.313 39.136C233.633 39.2 233.857 39.264 233.985 39.328ZM237.66 29.92H249.132L248.748 31.696H247.932C247.324 31.696 246.7 31.712 246.06 31.744C245.42 31.776 244.892 31.824 244.476 31.888C244.06 31.952 243.836 32.048 243.804 32.176L246.252 62.176H245.388L259.884 29.92H263.244L266.316 62.08L265.404 62.128L278.46 32.656C278.492 32.464 278.316 32.304 277.932 32.176C277.58 32.016 277.116 31.904 276.54 31.84C275.964 31.744 275.356 31.696 274.716 31.696H273.852L274.188 29.92H284.7L284.316 31.696H284.076C283.276 31.696 282.556 31.856 281.916 32.176C281.276 32.496 280.764 33.088 280.38 33.952L266.988 64H263.244L260.268 32.56L260.988 32.656L246.828 64H243.18L240.492 33.424C240.428 32.624 240.14 32.144 239.628 31.984C239.116 31.792 238.428 31.696 237.564 31.696H237.324L237.66 29.92ZM286.185 60.688C286.185 60.304 286.201 59.872 286.233 59.392C286.297 58.88 286.377 58.304 286.473 57.664C286.601 57.024 286.745 56.288 286.905 55.456L289.017 43.456C289.113 42.976 289.049 42.608 288.825 42.352C288.601 42.096 288.233 41.888 287.721 41.728C287.241 41.568 286.617 41.424 285.849 41.296L285.129 41.2L285.465 39.52H293.193L290.217 56.368C290.121 56.976 290.025 57.552 289.929 58.096C289.833 58.608 289.753 59.088 289.689 59.536C289.657 59.952 289.641 60.304 289.641 60.592C289.641 61.136 289.769 61.536 290.025 61.792C290.313 62.016 290.729 62.128 291.273 62.128C291.753 62.128 292.217 62.064 292.665 61.936C293.145 61.808 293.561 61.664 293.913 61.504C294.297 61.344 294.569 61.232 294.729 61.168L294.345 63.04C294.089 63.264 293.753 63.488 293.337 63.712C292.921 63.904 292.457 64.048 291.945 64.144C291.433 64.272 290.889 64.336 290.313 64.336C289.513 64.336 288.793 64.208 288.153 63.952C287.545 63.696 287.065 63.296 286.713 62.752C286.361 62.208 286.185 61.52 286.185 60.688ZM289.641 30.784C289.641 29.984 289.881 29.36 290.361 28.912C290.873 28.464 291.481 28.24 292.185 28.24C292.921 28.24 293.529 28.464 294.009 28.912C294.521 29.36 294.777 29.984 294.777 30.784C294.777 31.584 294.521 32.208 294.009 32.656C293.529 33.104 292.921 33.328 292.185 33.328C291.481 33.328 290.873 33.104 290.361 32.656C289.881 32.208 289.641 31.584 289.641 30.784ZM306.629 64.528C305.093 64.528 303.701 64.352 302.453 64C301.205 63.648 300.117 63.2 299.189 62.656C298.293 62.112 297.557 61.552 296.981 60.976L297.749 56.56H301.301L300.245 62.08C299.925 61.856 299.669 61.6 299.477 61.312C299.317 61.024 299.237 60.704 299.237 60.352C299.269 60 299.349 59.664 299.477 59.344C300.021 60.016 300.645 60.592 301.349 61.072C302.053 61.52 302.853 61.872 303.749 62.128C304.677 62.352 305.701 62.464 306.821 62.464C308.037 62.464 309.077 62.272 309.941 61.888C310.805 61.504 311.461 60.96 311.909 60.256C312.357 59.552 312.581 58.72 312.581 57.76C312.581 57.12 312.421 56.56 312.101 56.08C311.813 55.6 311.381 55.184 310.805 54.832C310.261 54.448 309.637 54.096 308.933 53.776C308.261 53.424 307.573 53.072 306.869 52.72C305.813 52.24 304.805 51.712 303.845 51.136C302.885 50.56 302.101 49.856 301.493 49.024C300.885 48.192 300.581 47.12 300.581 45.808C300.581 44.4 300.949 43.2 301.685 42.208C302.421 41.184 303.445 40.4 304.757 39.856C306.069 39.312 307.589 39.04 309.317 39.04C310.597 39.04 311.749 39.168 312.773 39.424C313.797 39.68 314.661 40.016 315.365 40.432C316.069 40.848 316.613 41.296 316.997 41.776L316.277 45.856H312.821L313.637 41.488C313.829 41.552 314.053 41.728 314.309 42.016C314.565 42.272 314.757 42.576 314.885 42.928C315.013 43.28 314.997 43.664 314.837 44.08C314.581 43.408 314.181 42.864 313.637 42.448C313.093 42 312.437 41.664 311.669 41.44C310.933 41.216 310.117 41.104 309.221 41.104C307.429 41.104 306.069 41.488 305.141 42.256C304.245 43.024 303.797 44.016 303.797 45.232C303.797 46.128 304.053 46.864 304.565 47.44C305.077 47.984 305.749 48.48 306.581 48.928C307.413 49.344 308.309 49.792 309.269 50.272C310.357 50.752 311.397 51.28 312.389 51.856C313.413 52.432 314.245 53.152 314.885 54.016C315.557 54.848 315.893 55.936 315.893 57.28C315.893 58.72 315.509 60 314.741 61.12C313.973 62.208 312.885 63.056 311.477 63.664C310.101 64.24 308.485 64.528 306.629 64.528ZM330.154 64.576C328.298 64.576 326.618 64.16 325.114 63.328C323.61 62.496 322.426 61.28 321.562 59.68C320.698 58.048 320.266 56.064 320.266 53.728C320.266 51.904 320.57 50.112 321.178 48.352C321.786 46.592 322.65 45.008 323.77 43.6C324.89 42.192 326.25 41.088 327.85 40.288C329.45 39.456 331.226 39.04 333.178 39.04C334.714 39.04 336.026 39.296 337.114 39.808C338.202 40.32 339.018 41.008 339.562 41.872C340.138 42.736 340.426 43.728 340.426 44.848C340.426 46.288 340.026 47.552 339.226 48.64C338.458 49.728 337.322 50.656 335.818 51.424C334.314 52.16 332.442 52.752 330.202 53.2C327.994 53.616 325.45 53.904 322.57 54.064L322.954 52.24C325.514 52.048 327.69 51.776 329.482 51.424C331.306 51.04 332.762 50.56 333.85 49.984C334.97 49.376 335.786 48.656 336.298 47.824C336.81 46.96 337.066 45.952 337.066 44.8C337.066 44.064 336.906 43.424 336.586 42.88C336.298 42.304 335.85 41.872 335.242 41.584C334.666 41.264 333.93 41.104 333.034 41.104C331.754 41.104 330.554 41.44 329.434 42.112C328.314 42.752 327.338 43.664 326.506 44.848C325.674 46.032 325.018 47.408 324.538 48.976C324.09 50.544 323.866 52.256 323.866 54.112C323.866 55.904 324.122 57.424 324.634 58.672C325.178 59.92 325.93 60.864 326.89 61.504C327.85 62.144 329.002 62.464 330.346 62.464C331.594 62.464 332.682 62.24 333.61 61.792C334.538 61.312 335.354 60.688 336.058 59.92C336.762 59.12 337.354 58.224 337.834 57.232L339.562 58.528C338.922 59.776 338.138 60.864 337.21 61.792C336.282 62.688 335.226 63.376 334.042 63.856C332.858 64.336 331.562 64.576 330.154 64.576Z" fill="#18181B"/>
</svg>
