<svg width="237" height="162" viewBox="0 0 237 162" fill="none" xmlns="http://www.w3.org/2000/svg">
<path d="M114.771 74.1298C115.044 74.4517 115.561 74.1623 115.436 73.7594C114.852 71.8637 114.457 70.1168 114.484 68.2698C114.52 65.8847 115.325 63.8754 116.951 62.1934C118.2 60.9035 121.897 57.3582 122.365 56.7606C123.798 54.9326 123.83 53.0153 122.34 51.2251C121.453 50.1623 120.409 49.2239 119.382 48.2856C117.681 46.7279 116.093 45.0946 115.109 42.9691C114.26 41.1383 114.287 39.3102 115.171 37.5092C115.474 36.8927 115.739 36.2247 115.945 35.6622C116.234 34.8618 116.997 34.3345 117.846 34.3345C119.171 34.3345 120.142 35.5892 119.806 36.871C119.777 36.9819 119.758 37.0684 119.75 37.1225C119.525 38.5612 119.201 41.2059 120.847 42.8447C122.278 44.2671 123.844 45.5597 125.242 47.0146C129.35 51.2927 129.26 56.5767 125.099 60.7737C123.298 62.5882 121.24 64.1323 119.639 66.1632C118.068 68.1535 117.316 70.4034 117.254 72.8913C117.197 75.1358 117.21 77.383 117.224 79.6302C117.229 80.5821 117.099 81.0337 116.056 80.3387C111.491 77.2992 106.269 76.1742 100.982 75.2602C99.4354 74.9925 97.8751 74.7978 96.3283 74.5409C94.5651 74.2488 93.5592 73.1455 93.1995 71.4446C93.0616 70.7901 92.9777 51.1061 92.9832 41.9415C92.9832 38.9939 94.0919 37.7851 96.9908 38.0636C101.19 38.4692 105.339 39.2751 109.319 40.7516C110.436 41.1653 111.231 41.9036 111.477 43.1313C111.899 45.2244 113.3 47.4554 114.417 48.5046C115.434 49.4619 117.527 50.6058 118.906 51.8227C120.966 53.6426 120.994 54.8055 118.892 56.6443C117.643 57.7368 115.785 59.3107 114.636 60.5033C111.439 63.8186 110.969 67.7371 113.203 71.7501C113.649 72.5506 114.106 73.3483 114.771 74.1298Z" fill="#00D3BB"/>
<path d="M145.004 70.1682C144.994 73.1104 143.741 74.3516 140.837 74.7194C135.218 75.4306 129.634 76.3338 124.447 78.8C123.557 79.2219 122.722 79.76 121.864 80.2495C121.402 80.5145 120.961 80.6443 120.977 79.8871C121.037 76.8855 120.672 73.8702 121.221 70.8848C121.515 69.2812 122.362 67.994 123.506 66.8528C125.158 65.2059 126.978 63.7159 128.409 61.8581C132.395 56.6768 132.086 50.1921 127.63 45.3948C126.867 44.5727 126.08 43.7614 125.236 43.0259C124.598 42.4688 124.728 42.2903 125.442 41.982C129.561 40.2135 133.901 39.2994 138.295 38.5963C139.444 38.4124 140.613 38.2962 141.775 38.2799C144.015 38.2529 144.996 39.2291 145.007 41.4655C145.029 46.3169 145.021 65.452 145.004 70.1682Z" fill="#00D3BB"/>
<path d="M114.606 34.6104C109.349 34.4211 104.563 31.3031 102.962 26.9655C102.226 24.9725 102.359 22.8335 102.126 20.7593C101.929 18.9908 101.794 17.2276 101.264 15.5185C101.058 14.856 101.242 14.5423 102.032 14.5667C106.118 14.6938 109.46 17.8658 109.582 21.8924C109.687 25.3132 111.196 28.0553 113.427 30.5108C114.206 31.368 115.042 32.2009 115.515 33.288C116.023 34.4589 115.886 34.6563 114.606 34.6104Z" fill="#0069A8"/>
<path d="M125.467 21.9411C125.467 17.9118 128.933 14.7424 133.017 14.6153C133.806 14.591 133.99 14.902 133.785 15.5672C133.255 17.2763 133.12 19.0394 132.922 20.808C132.69 22.8794 132.825 25.0185 132.087 27.0142C130.483 31.3518 125.696 34.4698 120.442 34.659C119.896 34.6726 119.993 34.1885 119.909 33.8802C119.331 31.752 118.117 30.1295 116.475 28.6205C113.573 25.9487 110.85 23.0741 111.689 18.5202C112.37 14.8236 114.45 11.9949 117.092 9.53409C117.789 8.88508 118.606 9.90998 118.933 10.3318C120.886 12.8468 122.889 15.3779 123.079 18.7825C123.138 19.8778 122.841 21.0216 122.151 22.0736C121.997 22.3089 121.646 22.2791 121.516 22.0303C120.534 20.1292 119.379 18.3715 118.016 16.7327C117.795 16.4677 117.37 16.4975 117.194 16.7949C115.672 19.3612 116.169 21.8032 118.603 23.8205C120.245 25.1807 121.237 26.9412 122.435 28.8639C123.109 29.9456 125.464 25.9271 125.464 21.9465L125.467 21.9411Z" fill="#0069A8"/>
<path d="M15.736 150.48C14.2 150.48 12.744 150.272 11.368 149.856C10.024 149.44 8.792 148.832 7.672 148.032C6.584 147.2 5.656 146.192 4.888 145.008C4.152 143.792 3.624 142.4 3.304 140.832C3.464 140.992 3.656 141.136 3.88 141.264C4.104 141.36 4.312 141.472 4.504 141.6C4.728 141.696 4.84 141.84 4.84 142.032L2.872 150H0.664L2.584 139.344H4.984C5.24 140.72 5.672 141.968 6.28 143.088C6.888 144.208 7.656 145.152 8.584 145.92C9.544 146.688 10.632 147.28 11.848 147.696C13.064 148.112 14.376 148.32 15.784 148.32C17.32 148.32 18.664 148.048 19.816 147.504C20.968 146.96 21.848 146.176 22.456 145.152C23.096 144.128 23.416 142.88 23.416 141.408C23.416 140.32 23.176 139.392 22.696 138.624C22.248 137.856 21.624 137.184 20.824 136.608C20.024 136 19.112 135.456 18.088 134.976C17.096 134.496 16.072 134.032 15.016 133.584C13.544 132.912 12.136 132.192 10.792 131.424C9.48 130.624 8.392 129.648 7.528 128.496C6.696 127.312 6.28 125.84 6.28 124.08C6.28 122.384 6.696 120.88 7.528 119.568C8.36 118.256 9.544 117.248 11.08 116.544C12.648 115.808 14.456 115.44 16.504 115.44C18.328 115.44 19.928 115.776 21.304 116.448C22.712 117.12 23.848 118.048 24.712 119.232C25.576 120.416 26.12 121.792 26.344 123.36C26.248 123.36 26.088 123.328 25.864 123.264C25.672 123.168 25.48 123.04 25.288 122.88C25.128 122.688 24.968 122.528 24.808 122.4L26.536 116.016H28.6L27.064 124.848H24.808C24.648 123.472 24.2 122.24 23.464 121.152C22.76 120.064 21.816 119.2 20.632 118.56C19.48 117.92 18.088 117.6 16.456 117.6C14.92 117.6 13.64 117.872 12.616 118.416C11.592 118.928 10.824 119.632 10.312 120.528C9.8 121.424 9.544 122.448 9.544 123.6C9.544 124.624 9.752 125.504 10.168 126.24C10.616 126.944 11.208 127.568 11.944 128.112C12.712 128.624 13.56 129.12 14.488 129.6C15.448 130.048 16.472 130.496 17.56 130.944C18.68 131.456 19.784 132.016 20.872 132.624C21.992 133.2 23 133.872 23.896 134.64C24.824 135.376 25.544 136.256 26.056 137.28C26.6 138.272 26.872 139.456 26.872 140.832C26.872 142.4 26.568 143.792 25.96 145.008C25.384 146.192 24.584 147.2 23.56 148.032C22.536 148.832 21.352 149.44 20.008 149.856C18.664 150.272 17.24 150.48 15.736 150.48ZM37.891 141.072C37.763 141.872 37.651 142.592 37.555 143.232C37.459 143.84 37.411 144.4 37.411 144.912C37.411 145.552 37.507 146.128 37.699 146.64C37.923 147.12 38.259 147.488 38.707 147.744C39.155 148 39.747 148.128 40.483 148.128C41.603 148.128 42.675 147.776 43.699 147.072C44.755 146.368 45.795 145.344 46.819 144C47.875 142.656 48.931 141.008 49.987 139.056L50.803 140.208C49.715 142.32 48.595 144.144 47.443 145.68C46.291 147.184 45.059 148.352 43.747 149.184C42.467 150.016 41.059 150.432 39.523 150.432C37.763 150.432 36.387 149.952 35.395 148.992C34.403 148.032 33.907 146.704 33.907 145.008C33.907 144.496 33.939 143.904 34.003 143.232C34.099 142.56 34.211 141.84 34.339 141.072L36.547 129.456C36.643 128.976 36.579 128.608 36.355 128.352C36.131 128.096 35.763 127.888 35.251 127.728C34.771 127.568 34.147 127.424 33.379 127.296L32.707 127.2L32.995 125.52H40.771L37.891 141.072ZM52.099 143.136C52.003 143.648 51.923 144.128 51.859 144.576C51.795 144.992 51.731 145.376 51.667 145.728C51.635 146.08 51.619 146.384 51.619 146.64C51.619 147.152 51.747 147.536 52.003 147.792C52.291 148.016 52.707 148.128 53.251 148.128C53.987 148.128 54.675 148 55.315 147.744C55.987 147.456 56.451 147.264 56.707 147.168L56.323 149.04C56.067 149.264 55.731 149.488 55.315 149.712C54.899 149.904 54.435 150.048 53.923 150.144C53.443 150.272 52.915 150.336 52.339 150.336C51.219 150.336 50.291 150.032 49.555 149.424C48.819 148.784 48.451 147.84 48.451 146.592C48.451 146.24 48.467 145.856 48.499 145.44C48.563 144.992 48.627 144.528 48.691 144.048C48.787 143.568 48.883 143.104 48.979 142.656L48.739 142.512L51.715 125.52H55.171L52.099 143.136ZM55.3555 160.704L55.6435 158.976H55.6915C56.8755 158.976 57.8515 158.864 58.6195 158.64C59.4195 158.448 59.8835 158.016 60.0115 157.344L64.9075 129.408C65.0035 128.96 64.9395 128.608 64.7155 128.352C64.4915 128.096 64.1235 127.888 63.6115 127.728C63.1315 127.568 62.5075 127.424 61.7395 127.296L61.1155 127.2L61.4035 125.52H68.7475L67.4995 132.768L67.8355 132.48L63.2755 158.496C63.2755 158.592 63.4035 158.656 63.6595 158.688C63.9155 158.752 64.2355 158.8 64.6195 158.832C65.0035 158.896 65.3875 158.928 65.7715 158.928C66.1875 158.96 66.5395 158.976 66.8275 158.976H68.0755L67.7875 160.704H55.3555ZM62.5555 145.104L64.2355 142.896C64.5555 144.08 65.0515 145.088 65.7235 145.92C66.3955 146.752 67.1955 147.392 68.1235 147.84C69.0835 148.256 70.1395 148.464 71.2915 148.464C72.4755 148.464 73.5795 148.208 74.6035 147.696C75.6275 147.184 76.5395 146.48 77.3395 145.584C78.1715 144.688 78.8595 143.648 79.4035 142.464C79.9795 141.28 80.4115 140 80.6995 138.624C81.0195 137.248 81.1795 135.84 81.1795 134.4C81.1795 132.896 81.0035 131.616 80.6515 130.56C80.3315 129.472 79.8195 128.64 79.1155 128.064C78.4435 127.456 77.5635 127.152 76.4755 127.152C75.2275 127.152 74.0435 127.536 72.9235 128.304C71.8355 129.04 70.7635 130.112 69.7075 131.52C68.6515 132.896 67.5635 134.576 66.4435 136.56L65.5795 135.216C66.7315 133.04 67.8675 131.2 68.9875 129.696C70.1395 128.192 71.3555 127.04 72.6355 126.24C73.9475 125.44 75.4195 125.04 77.0515 125.04C78.7155 125.04 80.1235 125.424 81.2755 126.192C82.4275 126.96 83.3075 128.064 83.9155 129.504C84.5555 130.944 84.8755 132.656 84.8755 134.64C84.8755 136.304 84.6675 137.92 84.2515 139.488C83.8355 141.024 83.2275 142.464 82.4275 143.808C81.6275 145.152 80.6675 146.336 79.5475 147.36C78.4275 148.352 77.1635 149.136 75.7555 149.712C74.3475 150.256 72.8275 150.528 71.1955 150.528C69.8515 150.528 68.6195 150.304 67.4995 149.856C66.3795 149.408 65.4035 148.784 64.5715 147.984C63.7395 147.152 63.0675 146.192 62.5555 145.104ZM98.7321 150.576C96.8761 150.576 95.1961 150.16 93.6921 149.328C92.1881 148.496 91.0041 147.28 90.1401 145.68C89.2761 144.048 88.8441 142.064 88.8441 139.728C88.8441 137.904 89.1481 136.112 89.7561 134.352C90.3641 132.592 91.2281 131.008 92.3481 129.6C93.4681 128.192 94.8281 127.088 96.4281 126.288C98.0281 125.456 99.8041 125.04 101.756 125.04C103.292 125.04 104.604 125.296 105.692 125.808C106.78 126.32 107.596 127.008 108.14 127.872C108.716 128.736 109.004 129.728 109.004 130.848C109.004 132.288 108.604 133.552 107.804 134.64C107.036 135.728 105.9 136.656 104.396 137.424C102.892 138.16 101.02 138.752 98.7801 139.2C96.5721 139.616 94.0281 139.904 91.1481 140.064L91.5321 138.24C94.0921 138.048 96.2681 137.776 98.0601 137.424C99.8841 137.04 101.34 136.56 102.428 135.984C103.548 135.376 104.364 134.656 104.876 133.824C105.388 132.96 105.644 131.952 105.644 130.8C105.644 130.064 105.484 129.424 105.164 128.88C104.876 128.304 104.428 127.872 103.82 127.584C103.244 127.264 102.508 127.104 101.612 127.104C100.332 127.104 99.1321 127.44 98.0121 128.112C96.8921 128.752 95.9161 129.664 95.0841 130.848C94.2521 132.032 93.5961 133.408 93.1161 134.976C92.6681 136.544 92.4441 138.256 92.4441 140.112C92.4441 141.904 92.7001 143.424 93.2121 144.672C93.7561 145.92 94.5081 146.864 95.4681 147.504C96.4281 148.144 97.5801 148.464 98.9241 148.464C100.172 148.464 101.26 148.24 102.188 147.792C103.116 147.312 103.932 146.688 104.636 145.92C105.34 145.12 105.932 144.224 106.412 143.232L108.14 144.528C107.5 145.776 106.716 146.864 105.788 147.792C104.86 148.688 103.804 149.376 102.62 149.856C101.436 150.336 100.14 150.576 98.7321 150.576ZM113.337 150L117.033 129.408C117.097 128.96 117.017 128.608 116.793 128.352C116.601 128.096 116.249 127.888 115.737 127.728C115.225 127.568 114.585 127.424 113.817 127.296L113.193 127.2L113.48 125.52H120.873L119.577 132.96L119.865 132.816L116.841 150H113.337ZM128.985 125.328L128.409 128.784C128.153 128.72 127.833 128.64 127.449 128.544C127.097 128.448 126.665 128.4 126.153 128.4C125.449 128.4 124.777 128.56 124.137 128.88C123.529 129.2 122.937 129.696 122.361 130.368C121.785 131.04 121.193 131.92 120.585 133.008C119.977 134.096 119.337 135.376 118.665 136.848L117.897 135.744C118.569 134.208 119.241 132.8 119.913 131.52C120.617 130.208 121.337 129.072 122.073 128.112C122.841 127.152 123.641 126.4 124.473 125.856C125.305 125.312 126.217 125.04 127.209 125.04C127.657 125.04 128.025 125.072 128.313 125.136C128.633 125.2 128.857 125.264 128.985 125.328ZM132.66 115.92H144.132L143.748 117.696H142.932C142.324 117.696 141.7 117.712 141.06 117.744C140.42 117.776 139.892 117.824 139.476 117.888C139.06 117.952 138.836 118.048 138.804 118.176L141.252 148.176H140.388L154.884 115.92H158.244L161.316 148.08L160.404 148.128L173.46 118.656C173.492 118.464 173.316 118.304 172.932 118.176C172.58 118.016 172.116 117.904 171.54 117.84C170.964 117.744 170.356 117.696 169.716 117.696H168.852L169.188 115.92H179.7L179.316 117.696H179.076C178.276 117.696 177.556 117.856 176.916 118.176C176.276 118.496 175.764 119.088 175.38 119.952L161.988 150H158.244L155.268 118.56L155.988 118.656L141.828 150H138.18L135.492 119.424C135.428 118.624 135.14 118.144 134.628 117.984C134.116 117.792 133.428 117.696 132.564 117.696H132.324L132.66 115.92ZM181.185 146.688C181.185 146.304 181.201 145.872 181.233 145.392C181.297 144.88 181.377 144.304 181.473 143.664C181.601 143.024 181.745 142.288 181.905 141.456L184.017 129.456C184.113 128.976 184.049 128.608 183.825 128.352C183.601 128.096 183.233 127.888 182.721 127.728C182.241 127.568 181.617 127.424 180.849 127.296L180.129 127.2L180.465 125.52H188.193L185.217 142.368C185.121 142.976 185.025 143.552 184.929 144.096C184.833 144.608 184.753 145.088 184.689 145.536C184.657 145.952 184.641 146.304 184.641 146.592C184.641 147.136 184.769 147.536 185.025 147.792C185.313 148.016 185.729 148.128 186.273 148.128C186.753 148.128 187.217 148.064 187.665 147.936C188.145 147.808 188.561 147.664 188.913 147.504C189.297 147.344 189.569 147.232 189.729 147.168L189.345 149.04C189.089 149.264 188.753 149.488 188.337 149.712C187.921 149.904 187.457 150.048 186.945 150.144C186.433 150.272 185.889 150.336 185.313 150.336C184.513 150.336 183.793 150.208 183.153 149.952C182.545 149.696 182.065 149.296 181.713 148.752C181.361 148.208 181.185 147.52 181.185 146.688ZM184.641 116.784C184.641 115.984 184.881 115.36 185.361 114.912C185.873 114.464 186.481 114.24 187.185 114.24C187.921 114.24 188.529 114.464 189.009 114.912C189.521 115.36 189.777 115.984 189.777 116.784C189.777 117.584 189.521 118.208 189.009 118.656C188.529 119.104 187.921 119.328 187.185 119.328C186.481 119.328 185.873 119.104 185.361 118.656C184.881 118.208 184.641 117.584 184.641 116.784ZM201.629 150.528C200.093 150.528 198.701 150.352 197.453 150C196.205 149.648 195.117 149.2 194.189 148.656C193.293 148.112 192.557 147.552 191.981 146.976L192.749 142.56H196.301L195.245 148.08C194.925 147.856 194.669 147.6 194.477 147.312C194.317 147.024 194.237 146.704 194.237 146.352C194.269 146 194.349 145.664 194.477 145.344C195.021 146.016 195.645 146.592 196.349 147.072C197.053 147.52 197.853 147.872 198.749 148.128C199.677 148.352 200.701 148.464 201.821 148.464C203.037 148.464 204.077 148.272 204.941 147.888C205.805 147.504 206.461 146.96 206.909 146.256C207.357 145.552 207.581 144.72 207.581 143.76C207.581 143.12 207.421 142.56 207.101 142.08C206.813 141.6 206.381 141.184 205.805 140.832C205.261 140.448 204.637 140.096 203.933 139.776C203.261 139.424 202.573 139.072 201.869 138.72C200.813 138.24 199.805 137.712 198.845 137.136C197.885 136.56 197.101 135.856 196.493 135.024C195.885 134.192 195.581 133.12 195.581 131.808C195.581 130.4 195.949 129.2 196.685 128.208C197.421 127.184 198.445 126.4 199.757 125.856C201.069 125.312 202.589 125.04 204.317 125.04C205.597 125.04 206.749 125.168 207.773 125.424C208.797 125.68 209.661 126.016 210.365 126.432C211.069 126.848 211.613 127.296 211.997 127.776L211.277 131.856H207.821L208.637 127.488C208.829 127.552 209.053 127.728 209.309 128.016C209.565 128.272 209.757 128.576 209.885 128.928C210.013 129.28 209.997 129.664 209.837 130.08C209.581 129.408 209.181 128.864 208.637 128.448C208.093 128 207.437 127.664 206.669 127.44C205.933 127.216 205.117 127.104 204.221 127.104C202.429 127.104 201.069 127.488 200.141 128.256C199.245 129.024 198.797 130.016 198.797 131.232C198.797 132.128 199.053 132.864 199.565 133.44C200.077 133.984 200.749 134.48 201.581 134.928C202.413 135.344 203.309 135.792 204.269 136.272C205.357 136.752 206.397 137.28 207.389 137.856C208.413 138.432 209.245 139.152 209.885 140.016C210.557 140.848 210.893 141.936 210.893 143.28C210.893 144.72 210.509 146 209.741 147.12C208.973 148.208 207.885 149.056 206.477 149.664C205.101 150.24 203.485 150.528 201.629 150.528ZM225.154 150.576C223.298 150.576 221.618 150.16 220.114 149.328C218.61 148.496 217.426 147.28 216.562 145.68C215.698 144.048 215.266 142.064 215.266 139.728C215.266 137.904 215.57 136.112 216.178 134.352C216.786 132.592 217.65 131.008 218.77 129.6C219.89 128.192 221.25 127.088 222.85 126.288C224.45 125.456 226.226 125.04 228.178 125.04C229.714 125.04 231.026 125.296 232.114 125.808C233.202 126.32 234.018 127.008 234.562 127.872C235.138 128.736 235.426 129.728 235.426 130.848C235.426 132.288 235.026 133.552 234.226 134.64C233.458 135.728 232.322 136.656 230.818 137.424C229.314 138.16 227.442 138.752 225.202 139.2C222.994 139.616 220.45 139.904 217.57 140.064L217.954 138.24C220.514 138.048 222.69 137.776 224.482 137.424C226.306 137.04 227.762 136.56 228.85 135.984C229.97 135.376 230.786 134.656 231.298 133.824C231.81 132.96 232.066 131.952 232.066 130.8C232.066 130.064 231.906 129.424 231.586 128.88C231.298 128.304 230.85 127.872 230.242 127.584C229.666 127.264 228.93 127.104 228.034 127.104C226.754 127.104 225.554 127.44 224.434 128.112C223.314 128.752 222.338 129.664 221.506 130.848C220.674 132.032 220.018 133.408 219.538 134.976C219.09 136.544 218.866 138.256 218.866 140.112C218.866 141.904 219.122 143.424 219.634 144.672C220.178 145.92 220.93 146.864 221.89 147.504C222.85 148.144 224.002 148.464 225.346 148.464C226.594 148.464 227.682 148.24 228.61 147.792C229.538 147.312 230.354 146.688 231.058 145.92C231.762 145.12 232.354 144.224 232.834 143.232L234.562 144.528C233.922 145.776 233.138 146.864 232.21 147.792C231.282 148.688 230.226 149.376 229.042 149.856C227.858 150.336 226.562 150.576 225.154 150.576Z" fill="#ECF9FF"/>
</svg>
