<svg width="96" height="96" viewBox="0 0 96 96" fill="none" xmlns="http://www.w3.org/2000/svg">
<path d="M43.7711 74.1298C44.0442 74.4517 44.5607 74.1623 44.4363 73.7594C43.8522 71.8637 43.4574 70.1168 43.4845 68.2698C43.5196 65.8847 44.3255 63.8754 45.9507 62.1934C47.2001 60.9035 50.8967 57.3582 51.3646 56.7606C52.7978 54.9326 52.8303 53.0153 51.3402 51.2251C50.4532 50.1623 49.4094 49.2239 48.3818 48.2856C46.6808 46.7279 45.0935 45.0946 44.1091 42.9691C43.26 41.1383 43.287 39.3102 44.1713 37.5092C44.4742 36.8927 44.7392 36.2247 44.9447 35.6622C45.2341 34.8618 45.9967 34.3345 46.8458 34.3345C48.1709 34.3345 49.1417 35.5892 48.8064 36.871C48.7766 36.9819 48.7577 37.0684 48.7496 37.1225C48.5251 38.5612 48.2006 41.2059 49.8475 42.8447C51.278 44.2671 52.8438 45.5597 54.2419 47.0146C58.3496 51.2927 58.2603 56.5767 54.0985 60.7737C52.2975 62.5882 50.2396 64.1323 48.6387 66.1632C47.0676 68.1535 46.3158 70.4034 46.2536 72.8913C46.1968 75.1358 46.2103 77.383 46.2238 79.6302C46.2292 80.5821 46.0994 81.0337 45.0556 80.3387C40.4909 77.2992 35.269 76.1742 29.9823 75.2602C28.4354 74.9925 26.8751 74.7978 25.3283 74.5409C23.5651 74.2488 22.5592 73.1455 22.1995 71.4446C22.0616 70.7901 21.9777 51.1061 21.9832 41.9415C21.9832 38.9939 23.0919 37.7851 25.9908 38.0636C30.1905 38.4692 34.3388 39.2751 38.3194 40.7516C39.4362 41.1653 40.2313 41.9036 40.4774 43.1313C40.8992 45.2244 42.3 47.4554 43.4168 48.5046C44.4336 49.4619 46.5267 50.6058 47.9059 51.8227C49.9665 53.6426 49.9935 54.8055 47.8923 56.6443C46.643 57.7368 44.7852 59.3107 43.6359 60.5033C40.4395 63.8186 39.969 67.7371 42.2026 71.7501C42.6488 72.5506 43.1059 73.3483 43.7711 74.1298Z" fill="#00D3BB"/>
<path d="M74.0043 70.1682C73.9935 73.1104 72.7415 74.3516 69.8371 74.7194C64.2178 75.4306 58.6335 76.3338 53.4468 78.8C52.5571 79.2219 51.7215 79.76 50.8643 80.2495C50.4019 80.5145 49.9611 80.6443 49.9773 79.8871C50.0368 76.8855 49.6717 73.8702 50.2207 70.8848C50.5154 69.2812 51.3619 67.994 52.5057 66.8528C54.158 65.2059 55.978 63.7159 57.4085 61.8581C61.3945 56.6768 61.0863 50.1921 56.6297 45.3948C55.8671 44.5727 55.0802 43.7614 54.2365 43.0259C53.5983 42.4688 53.7281 42.2903 54.442 41.982C58.5605 40.2135 62.9008 39.2994 67.2952 38.5963C68.4445 38.4124 69.6127 38.2962 70.7755 38.2799C73.0146 38.2529 73.9962 39.2291 74.007 41.4655C74.0287 46.3169 74.0206 65.452 74.0043 70.1682Z" fill="#00D3BB"/>
<path d="M43.6064 34.6104C38.3494 34.4211 33.5629 31.3031 31.962 26.9655C31.2265 24.9725 31.359 22.8335 31.1264 20.7593C30.929 18.9908 30.7938 17.2276 30.2638 15.5185C30.0583 14.856 30.2422 14.5423 31.0318 14.5667C35.1179 14.6938 38.4603 17.8658 38.582 21.8924C38.6875 25.3132 40.1964 28.0553 42.4274 30.5108C43.2062 31.368 44.0418 32.2009 44.5151 33.288C45.0235 34.4589 44.8855 34.6563 43.6064 34.6104Z" fill="#0069A8"/>
<path d="M54.4666 21.9411C54.4666 17.9118 57.9334 14.7424 62.0168 14.6153C62.8064 14.591 62.9903 14.902 62.7848 15.5672C62.2548 17.2763 62.1196 19.0394 61.9222 20.808C61.6896 22.8794 61.8248 25.0185 61.0865 27.0142C59.4829 31.3518 54.6965 34.4698 49.4422 34.659C48.8959 34.6726 48.9933 34.1885 48.9094 33.8802C48.3307 31.752 47.1165 30.1295 45.4751 28.6205C42.5734 25.9487 39.8503 23.0741 40.6886 18.5202C41.37 14.8236 43.4496 11.9949 46.0916 9.53409C46.7893 8.88508 47.606 9.90998 47.9332 10.3318C49.8856 12.8468 51.8895 15.3779 52.0788 18.7825C52.1383 19.8778 51.8408 21.0216 51.1512 22.0736C50.9971 22.3089 50.6455 22.2791 50.5157 22.0303C49.5341 20.1292 48.3794 18.3715 47.0165 16.7327C46.7947 16.4677 46.3702 16.4975 46.1944 16.7949C44.6719 19.3612 45.1695 21.8032 47.6033 23.8205C49.2447 25.1807 50.2372 26.9412 51.4352 28.8639C52.1085 29.9456 54.4639 25.9271 54.4639 21.9465L54.4666 21.9411Z" fill="#0069A8"/>
</svg>
